<svg xmlns="http://www.w3.org/2000/svg" xmlns:xlink="http://www.w3.org/1999/xlink" width="840" height="581.04"><rect width="840" height="581.04" rx="5" ry="5" class="a"></rect><svg y="0%" x="0%"><circle cx="20" cy="20" r="6" class="b"></circle><circle cx="40" cy="20" r="6" class="c"></circle><circle cx="60" cy="20" r="6" class="d"></circle></svg><svg height="521.04" viewBox="0 0 80 52.104" width="800" x="15" xmlns="http://www.w3.org/2000/svg" xmlns:xlink="http://www.w3.org/1999/xlink" y="50"><style>.a{fill:rgb(40,45,53)}.b{fill:#ff5f58}.c{fill:#ffbd2e}.d{fill:#18c132}.e{font-family:'Fira Code',Monaco,Consolas,Menlo,'Bitstream Vera Sans Mono','Powerline Symbols',monospace}.f{fill:rgb(185,192,203);white-space:pre}.g{fill:rgb(185,192,203);font-weight:bold;white-space:pre}.h{fill:rgb(232,131,136);white-space:pre}.i{fill:rgb(168,204,140);font-weight:bold;white-space:pre}.j{fill:rgb(113,190,242);font-weight:bold;white-space:pre}.k{fill:rgb(232,131,136);font-weight:bold;white-space:pre}.l{fill:rgb(113,190,242);white-space:pre}.m{fill:rgb(168,204,140);white-space:pre}.n{fill:rgb(148,148,148);white-space:pre}.o{fill:rgb(148,148,148);font-style:italic;white-space:pre}.p{fill:rgb(188,188,188);white-space:pre}.q{fill:transparent}.r{fill:rgb(111,118,131)}.t{animation-duration:7.43319392204285s;animation-iteration-count:infinite;animation-name:s;animation-timing-function:steps(1,end)}@keyframes s{0%{transform:translateX(-0px)}0%{transform:translateX(-80px)}0%{transform:translateX(-160px)}0.8%{transform:translateX(-240px)}1.6%{transform:translateX(-320px)}2%{transform:translateX(-400px)}2.4%{transform:translateX(-480px)}3.5%{transform:translateX(-560px)}4.4%{transform:translateX(-640px)}5.1%{transform:translateX(-720px)}5.6%{transform:translateX(-800px)}6.4%{transform:translateX(-880px)}7.2%{transform:translateX(-960px)}8.1%{transform:translateX(-1040px)}9.2%{transform:translateX(-1120px)}9.9%{transform:translateX(-1200px)}10.6%{transform:translateX(-1280px)}11%{transform:translateX(-1360px)}11.5%{transform:translateX(-1440px)}12%{transform:translateX(-1520px)}12.5%{transform:translateX(-1600px)}25.4%{transform:translateX(-1680px)}25.5%{transform:translateX(-1760px)}26.5%{transform:translateX(-1840px)}26.7%{transform:translateX(-1920px)}27.1%{transform:translateX(-2000px)}28.2%{transform:translateX(-2080px)}29.1%{transform:translateX(-2160px)}29.5%{transform:translateX(-2240px)}29.9%{transform:translateX(-2320px)}30.3%{transform:translateX(-2400px)}31.2%{transform:translateX(-2480px)}31.8%{transform:translateX(-2560px)}32.4%{transform:translateX(-2640px)}32.4%{transform:translateX(-2720px)}32.4%{transform:translateX(-2800px)}100%{transform:translateX(-2880px)}}</style><g font-family="&#x27;Fira Code&#x27;,Monaco,Consolas,Menlo,&#x27;Bitstream Vera Sans Mono&#x27;,&#x27;Powerline Symbols&#x27;,monospace" font-size="1.67" class="e"><defs><symbol id="1"><text x="0" y="1.67" class="f">&gt;</text></symbol><symbol id="2"><text x="0" y="1.67" class="f">&gt;</text><text x="2.004" y="1.67" class="f">library(tidyverse)</text></symbol><symbol id="3"><text x="0" y="1.67" class="g">──</text><text x="3.006" y="1.67" class="g">Attaching</text><text x="13.026" y="1.67" class="g">packages</text><text x="22.043999999999997" y="1.67" class="f">──────────────────────────────────</text><text x="57.114" y="1.67" class="f">tidyverse</text><text x="67.134" y="1.67" class="f">1.3.0.</text><text x="73.146" y="1.67" class="h">9000</text><text x="78.15599999999999" y="1.67" class="f">──</text></symbol><symbol id="4"><text x="0" y="1.67" class="i">✓</text><text x="2.004" y="1.67" class="j">ggplot2</text><text x="10.02" y="1.67" class="g">3.3.3.</text><text x="16.032" y="1.67" class="k">9000</text><text x="25.05" y="1.67" class="i">✓</text><text x="27.054" y="1.67" class="j">purrr</text><text x="35.06999999999999" y="1.67" class="g">0.3.4</text></symbol><symbol id="5"><text x="0" y="1.67" class="i">✓</text><text x="2.004" y="1.67" class="j">tibble</text><text x="10.02" y="1.67" class="g">3.1.0</text><text x="25.05" y="1.67" class="i">✓</text><text x="27.054" y="1.67" class="j">dplyr</text><text x="35.06999999999999" y="1.67" class="g">1.0.4</text></symbol><symbol id="6"><text x="0" y="1.67" class="i">✓</text><text x="2.004" y="1.67" class="j">tidyr</text><text x="10.02" y="1.67" class="g">1.1.2</text><text x="25.05" y="1.67" class="i">✓</text><text x="27.054" y="1.67" class="j">stringr</text><text x="35.06999999999999" y="1.67" class="g">1.4.0</text></symbol><symbol id="7"><text x="0" y="1.67" class="i">✓</text><text x="2.004" y="1.67" class="j">readr</text><text x="10.02" y="1.67" class="g">1.4.0</text><text x="25.05" y="1.67" class="i">✓</text><text x="27.054" y="1.67" class="j">forcats</text><text x="35.06999999999999" y="1.67" class="g">0.5.0</text></symbol><symbol id="8"><text x="0" y="1.67" class="g">──</text><text x="3.006" y="1.67" class="g">Conflicts</text><text x="13.026" y="1.67" class="f">──────────────────────────────────────────</text><text x="56.111999999999995" y="1.67" class="f">tidyverse_conflicts()</text><text x="78.15599999999999" y="1.67" class="f">──</text></symbol><symbol id="9"><text x="0" y="1.67" class="h">x</text><text x="2.004" y="1.67" class="l">dplyr</text><text x="7.013999999999999" y="1.67" class="f">::</text><text x="9.017999999999999" y="1.67" class="m">filter()</text><text x="18.035999999999998" y="1.67" class="f">masks</text><text x="24.048" y="1.67" class="l">stats</text><text x="29.058" y="1.67" class="f">::filter()</text></symbol><symbol id="10"><text x="0" y="1.67" class="h">x</text><text x="2.004" y="1.67" class="l">dplyr</text><text x="7.013999999999999" y="1.67" class="f">::</text><text x="9.017999999999999" y="1.67" class="m">lag()</text><text x="18.035999999999998" y="1.67" class="f">masks</text><text x="24.048" y="1.67" class="l">stats</text><text x="29.058" y="1.67" class="f">::lag()</text></symbol><symbol id="11"><text x="0" y="1.67" class="f">&gt;</text><text x="2.004" y="1.67" class="f">starwars</text></symbol><symbol id="12"><text x="0" y="1.67" class="n">#</text><text x="2.004" y="1.67" class="n">A</text><text x="4.008" y="1.67" class="n">tibble:</text><text x="12.024" y="1.67" class="n">87</text><text x="15.029999999999998" y="1.67" class="n">x</text><text x="17.034" y="1.67" class="n">14</text></symbol><symbol id="13"><text x="3.006" y="1.67" class="f">name</text><text x="11.021999999999998" y="1.67" class="f">height</text><text x="19.037999999999997" y="1.67" class="f">mass</text><text x="24.048" y="1.67" class="f">hair_color</text><text x="36.071999999999996" y="1.67" class="f">skin_color</text><text x="47.093999999999994" y="1.67" class="f">eye_color</text><text x="57.114" y="1.67" class="f">birth_year</text><text x="68.136" y="1.67" class="f">sex</text><text x="74.148" y="1.67" class="f">gender</text></symbol><symbol id="14"><text x="3.006" y="1.67" class="o">&lt;chr&gt;</text><text x="12.024" y="1.67" class="o">&lt;int&gt;</text><text x="18.035999999999998" y="1.67" class="o">&lt;dbl&gt;</text><text x="24.048" y="1.67" class="o">&lt;chr&gt;</text><text x="36.071999999999996" y="1.67" class="o">&lt;chr&gt;</text><text x="47.093999999999994" y="1.67" class="o">&lt;chr&gt;</text><text x="62.123999999999995" y="1.67" class="o">&lt;dbl&gt;</text><text x="68.136" y="1.67" class="o">&lt;chr&gt;</text><text x="74.148" y="1.67" class="o">&lt;chr&gt;</text></symbol><symbol id="15"><text x="1.002" y="1.67" class="p">1</text><text x="3.006" y="1.67" class="f">Luke</text><text x="8.016" y="1.67" class="f">S…</text><text x="14.027999999999999" y="1.67" class="f">172</text><text x="21.041999999999998" y="1.67" class="f">77</text><text x="24.048" y="1.67" class="f">blond</text><text x="36.071999999999996" y="1.67" class="f">fair</text><text x="47.093999999999994" y="1.67" class="f">blue</text><text x="63.12599999999999" y="1.67" class="f">19</text><text x="68.136" y="1.67" class="f">male</text><text x="74.148" y="1.67" class="f">mascu…</text></symbol><symbol id="16"><text x="1.002" y="1.67" class="p">2</text><text x="3.006" y="1.67" class="f">C-3PO</text><text x="14.027999999999999" y="1.67" class="f">167</text><text x="21.041999999999998" y="1.67" class="f">75</text><text x="24.048" y="1.67" class="h">NA</text><text x="36.071999999999996" y="1.67" class="f">gold</text><text x="47.093999999999994" y="1.67" class="f">yellow</text><text x="62.123999999999995" y="1.67" class="f">112</text><text x="68.136" y="1.67" class="f">none</text><text x="74.148" y="1.67" class="f">mascu…</text></symbol><symbol id="17"><text x="1.002" y="1.67" class="p">3</text><text x="3.006" y="1.67" class="f">R2-D2</text><text x="15.029999999999998" y="1.67" class="f">96</text><text x="21.041999999999998" y="1.67" class="f">32</text><text x="24.048" y="1.67" class="h">NA</text><text x="36.071999999999996" y="1.67" class="f">white,</text><text x="43.086" y="1.67" class="f">bl…</text><text x="47.093999999999994" y="1.67" class="f">red</text><text x="63.12599999999999" y="1.67" class="f">33</text><text x="68.136" y="1.67" class="f">none</text><text x="74.148" y="1.67" class="f">mascu…</text></symbol><symbol id="18"><text x="1.002" y="1.67" class="p">4</text><text x="3.006" y="1.67" class="f">Darth</text><text x="9.017999999999999" y="1.67" class="f">…</text><text x="14.027999999999999" y="1.67" class="f">202</text><text x="20.04" y="1.67" class="f">136</text><text x="24.048" y="1.67" class="f">none</text><text x="36.071999999999996" y="1.67" class="f">white</text><text x="47.093999999999994" y="1.67" class="f">yellow</text><text x="63.12599999999999" y="1.67" class="f">41.9</text><text x="68.136" y="1.67" class="f">male</text><text x="74.148" y="1.67" class="f">mascu…</text></symbol><symbol id="19"><text x="1.002" y="1.67" class="p">5</text><text x="3.006" y="1.67" class="f">Leia</text><text x="8.016" y="1.67" class="f">O…</text><text x="14.027999999999999" y="1.67" class="f">150</text><text x="21.041999999999998" y="1.67" class="f">49</text><text x="24.048" y="1.67" class="f">brown</text><text x="36.071999999999996" y="1.67" class="f">light</text><text x="47.093999999999994" y="1.67" class="f">brown</text><text x="63.12599999999999" y="1.67" class="f">19</text><text x="68.136" y="1.67" class="f">fema…</text><text x="74.148" y="1.67" class="f">femin…</text></symbol><symbol id="20"><text x="1.002" y="1.67" class="p">6</text><text x="3.006" y="1.67" class="f">Owen</text><text x="8.016" y="1.67" class="f">L…</text><text x="14.027999999999999" y="1.67" class="f">178</text><text x="20.04" y="1.67" class="f">120</text><text x="24.048" y="1.67" class="f">brown,</text><text x="31.061999999999998" y="1.67" class="f">grey</text><text x="36.071999999999996" y="1.67" class="f">light</text><text x="47.093999999999994" y="1.67" class="f">blue</text><text x="63.12599999999999" y="1.67" class="f">52</text><text x="68.136" y="1.67" class="f">male</text><text x="74.148" y="1.67" class="f">mascu…</text></symbol><symbol id="21"><text x="1.002" y="1.67" class="p">7</text><text x="3.006" y="1.67" class="f">Beru</text><text x="8.016" y="1.67" class="f">W…</text><text x="14.027999999999999" y="1.67" class="f">165</text><text x="21.041999999999998" y="1.67" class="f">75</text><text x="24.048" y="1.67" class="f">brown</text><text x="36.071999999999996" y="1.67" class="f">light</text><text x="47.093999999999994" y="1.67" class="f">blue</text><text x="63.12599999999999" y="1.67" class="f">47</text><text x="68.136" y="1.67" class="f">fema…</text><text x="74.148" y="1.67" class="f">femin…</text></symbol><symbol id="22"><text x="1.002" y="1.67" class="p">8</text><text x="3.006" y="1.67" class="f">R5-D4</text><text x="15.029999999999998" y="1.67" class="f">97</text><text x="21.041999999999998" y="1.67" class="f">32</text><text x="24.048" y="1.67" class="h">NA</text><text x="36.071999999999996" y="1.67" class="f">white,</text><text x="43.086" y="1.67" class="f">red</text><text x="47.093999999999994" y="1.67" class="f">red</text><text x="63.12599999999999" y="1.67" class="h">NA</text><text x="68.136" y="1.67" class="f">none</text><text x="74.148" y="1.67" class="f">mascu…</text></symbol><symbol id="23"><text x="1.002" y="1.67" class="p">9</text><text x="3.006" y="1.67" class="f">Biggs</text><text x="9.017999999999999" y="1.67" class="f">…</text><text x="14.027999999999999" y="1.67" class="f">183</text><text x="21.041999999999998" y="1.67" class="f">84</text><text x="24.048" y="1.67" class="f">black</text><text x="36.071999999999996" y="1.67" class="f">light</text><text x="47.093999999999994" y="1.67" class="f">brown</text><text x="63.12599999999999" y="1.67" class="f">24</text><text x="68.136" y="1.67" class="f">male</text><text x="74.148" y="1.67" class="f">mascu…</text></symbol><symbol id="24"><text x="0" y="1.67" class="p">10</text><text x="3.006" y="1.67" class="f">Obi-Wa…</text><text x="14.027999999999999" y="1.67" class="f">182</text><text x="21.041999999999998" y="1.67" class="f">77</text><text x="24.048" y="1.67" class="f">auburn,</text><text x="32.064" y="1.67" class="f">wh…</text><text x="36.071999999999996" y="1.67" class="f">fair</text><text x="47.093999999999994" y="1.67" class="f">blue-gray</text><text x="63.12599999999999" y="1.67" class="f">57</text><text x="68.136" y="1.67" class="f">male</text><text x="74.148" y="1.67" class="f">mascu…</text></symbol><symbol id="25"><text x="0" y="1.67" class="n">#</text><text x="2.004" y="1.67" class="n">…</text><text x="4.008" y="1.67" class="n">with</text><text x="9.017999999999999" y="1.67" class="n">77</text><text x="12.024" y="1.67" class="n">more</text><text x="17.034" y="1.67" class="n">rows,</text><text x="23.045999999999996" y="1.67" class="n">and</text><text x="27.054" y="1.67" class="n">5</text><text x="29.058" y="1.67" class="n">more</text><text x="34.068" y="1.67" class="n">variables:</text><text x="45.089999999999996" y="1.67" class="n">homeworld</text><text x="55.10999999999999" y="1.67" class="n">&lt;chr&gt;,</text><text x="62.123999999999995" y="1.67" class="n">species</text><text x="70.13999999999999" y="1.67" class="n">&lt;chr&gt;,</text></symbol><symbol id="26"><text x="0" y="1.67" class="n">#</text><text x="4.008" y="1.67" class="n">films</text><text x="10.02" y="1.67" class="n">&lt;list&gt;,</text><text x="18.035999999999998" y="1.67" class="n">vehicles</text><text x="27.054" y="1.67" class="n">&lt;list&gt;,</text><text x="35.06999999999999" y="1.67" class="n">starships</text><text x="45.089999999999996" y="1.67" class="n">&lt;list&gt;</text></symbol><symbol id="a"><rect height="25" width="80" x="0" y="0" class="q"></rect></symbol><symbol id="b"><rect height="2.171" width="1.1022" class="r"></rect></symbol></defs><rect height="52.104" width="80" class="a"></rect><g class="t"><svg x="0" y="0" width="2960"><svg x="0"><use xlink:href="#a"></use><use xlink:href="#b" x="-0.0040000000000000036" y="0"></use></svg><svg x="80"><use xlink:href="#a"></use><use xlink:href="#b" x="1.996" y="0"></use><use xlink:href="#1" y="0"></use></svg><svg x="160"><use xlink:href="#a"></use><use xlink:href="#b" x="2.996" y="0"></use><text x="0" y="1.67" class="f">&gt;</text><text x="2.004" y="1.67" class="f">l</text></svg><svg x="240"><use xlink:href="#a"></use><use xlink:href="#b" x="3.996" y="0"></use><text x="0" y="1.67" class="f">&gt;</text><text x="2.004" y="1.67" class="f">li</text></svg><svg x="320"><use xlink:href="#a"></use><use xlink:href="#b" x="4.996" y="0"></use><text x="0" y="1.67" class="f">&gt;</text><text x="2.004" y="1.67" class="f">lib</text></svg><svg x="400"><use xlink:href="#a"></use><use xlink:href="#b" x="5.996" y="0"></use><text x="0" y="1.67" class="f">&gt;</text><text x="2.004" y="1.67" class="f">libr</text></svg><svg x="480"><use xlink:href="#a"></use><use xlink:href="#b" x="6.996" y="0"></use><text x="0" y="1.67" class="f">&gt;</text><text x="2.004" y="1.67" class="f">libra</text></svg><svg x="560"><use xlink:href="#a"></use><use xlink:href="#b" x="7.996" y="0"></use><text x="0" y="1.67" class="f">&gt;</text><text x="2.004" y="1.67" class="f">librar</text></svg><svg x="640"><use xlink:href="#a"></use><use xlink:href="#b" x="8.996" y="0"></use><text x="0" y="1.67" class="f">&gt;</text><text x="2.004" y="1.67" class="f">library</text></svg><svg x="720"><use xlink:href="#a"></use><use xlink:href="#b" x="9.996" y="0"></use><text x="0" y="1.67" class="f">&gt;</text><text x="2.004" y="1.67" class="f">library(</text></svg><svg x="800"><use xlink:href="#a"></use><use xlink:href="#b" x="10.996" y="0"></use><text x="0" y="1.67" class="f">&gt;</text><text x="2.004" y="1.67" class="f">library(t</text></svg><svg x="880"><use xlink:href="#a"></use><use xlink:href="#b" x="11.996" y="0"></use><text x="0" y="1.67" class="f">&gt;</text><text x="2.004" y="1.67" class="f">library(ti</text></svg><svg x="960"><use xlink:href="#a"></use><use xlink:href="#b" x="12.996" y="0"></use><text x="0" y="1.67" class="f">&gt;</text><text x="2.004" y="1.67" class="f">library(tid</text></svg><svg x="1040"><use xlink:href="#a"></use><use xlink:href="#b" x="13.996" y="0"></use><text x="0" y="1.67" class="f">&gt;</text><text x="2.004" y="1.67" class="f">library(tidy</text></svg><svg x="1120"><use xlink:href="#a"></use><use xlink:href="#b" x="14.996" y="0"></use><text x="0" y="1.67" class="f">&gt;</text><text x="2.004" y="1.67" class="f">library(tidyv</text></svg><svg x="1200"><use xlink:href="#a"></use><use xlink:href="#b" x="15.996" y="0"></use><text x="0" y="1.67" class="f">&gt;</text><text x="2.004" y="1.67" class="f">library(tidyve</text></svg><svg x="1280"><use xlink:href="#a"></use><use xlink:href="#b" x="16.996" y="0"></use><text x="0" y="1.67" class="f">&gt;</text><text x="2.004" y="1.67" class="f">library(tidyver</text></svg><svg x="1360"><use xlink:href="#a"></use><use xlink:href="#b" x="17.996" y="0"></use><text x="0" y="1.67" class="f">&gt;</text><text x="2.004" y="1.67" class="f">library(tidyvers</text></svg><svg x="1440"><use xlink:href="#a"></use><use xlink:href="#b" x="18.996" y="0"></use><text x="0" y="1.67" class="f">&gt;</text><text x="2.004" y="1.67" class="f">library(tidyverse</text></svg><svg x="1520"><use xlink:href="#a"></use><use xlink:href="#b" x="19.996" y="0"></use><use xlink:href="#2" y="0"></use></svg><svg x="1600"><use xlink:href="#a"></use><use xlink:href="#b" x="-0.0040000000000000036" y="2.146"></use><use xlink:href="#2" y="0"></use></svg><svg x="1680"><use xlink:href="#a"></use><use xlink:href="#b" x="-0.0040000000000000036" y="4.317"></use><use xlink:href="#2" y="0"></use><use xlink:href="#3" y="2.171"></use></svg><svg x="1760"><use xlink:href="#a"></use><use xlink:href="#b" x="-0.0040000000000000036" y="13.001"></use><use xlink:href="#2" y="0"></use><use xlink:href="#3" y="2.171"></use><use xlink:href="#4" y="4.342"></use><use xlink:href="#5" y="6.513"></use><use xlink:href="#6" y="8.684"></use><use xlink:href="#7" y="10.855"></use></svg><svg x="1840"><use xlink:href="#a"></use><use xlink:href="#b" x="-0.0040000000000000036" y="19.514000000000003"></use><use xlink:href="#2" y="0"></use><use xlink:href="#3" y="2.171"></use><use xlink:href="#4" y="4.342"></use><use xlink:href="#5" y="6.513"></use><use xlink:href="#6" y="8.684"></use><use xlink:href="#7" y="10.855"></use><use xlink:href="#8" y="13.026"></use><use xlink:href="#9" y="15.197"></use><use xlink:href="#10" y="17.368"></use></svg><svg x="1920"><use xlink:href="#a"></use><use xlink:href="#b" x="2.996" y="19.514000000000003"></use><use xlink:href="#2" y="0"></use><use xlink:href="#3" y="2.171"></use><use xlink:href="#4" y="4.342"></use><use xlink:href="#5" y="6.513"></use><use xlink:href="#6" y="8.684"></use><use xlink:href="#7" y="10.855"></use><use xlink:href="#8" y="13.026"></use><use xlink:href="#9" y="15.197"></use><use xlink:href="#10" y="17.368"></use><text x="0" y="21.209000000000003" class="f">&gt;</text><text x="2.004" y="21.209000000000003" class="f">s</text></svg><svg x="2000"><use xlink:href="#a"></use><use xlink:href="#b" x="3.996" y="19.514000000000003"></use><use xlink:href="#2" y="0"></use><use xlink:href="#3" y="2.171"></use><use xlink:href="#4" y="4.342"></use><use xlink:href="#5" y="6.513"></use><use xlink:href="#6" y="8.684"></use><use xlink:href="#7" y="10.855"></use><use xlink:href="#8" y="13.026"></use><use xlink:href="#9" y="15.197"></use><use xlink:href="#10" y="17.368"></use><text x="0" y="21.209000000000003" class="f">&gt;</text><text x="2.004" y="21.209000000000003" class="f">st</text></svg><svg x="2080"><use xlink:href="#a"></use><use xlink:href="#b" x="4.996" y="19.514000000000003"></use><use xlink:href="#2" y="0"></use><use xlink:href="#3" y="2.171"></use><use xlink:href="#4" y="4.342"></use><use xlink:href="#5" y="6.513"></use><use xlink:href="#6" y="8.684"></use><use xlink:href="#7" y="10.855"></use><use xlink:href="#8" y="13.026"></use><use xlink:href="#9" y="15.197"></use><use xlink:href="#10" y="17.368"></use><text x="0" y="21.209000000000003" class="f">&gt;</text><text x="2.004" y="21.209000000000003" class="f">sta</text></svg><svg x="2160"><use xlink:href="#a"></use><use xlink:href="#b" x="5.996" y="19.514000000000003"></use><use xlink:href="#2" y="0"></use><use xlink:href="#3" y="2.171"></use><use xlink:href="#4" y="4.342"></use><use xlink:href="#5" y="6.513"></use><use xlink:href="#6" y="8.684"></use><use xlink:href="#7" y="10.855"></use><use xlink:href="#8" y="13.026"></use><use xlink:href="#9" y="15.197"></use><use xlink:href="#10" y="17.368"></use><text x="0" y="21.209000000000003" class="f">&gt;</text><text x="2.004" y="21.209000000000003" class="f">star</text></svg><svg x="2240"><use xlink:href="#a"></use><use xlink:href="#b" x="6.996" y="19.514000000000003"></use><use xlink:href="#2" y="0"></use><use xlink:href="#3" y="2.171"></use><use xlink:href="#4" y="4.342"></use><use xlink:href="#5" y="6.513"></use><use xlink:href="#6" y="8.684"></use><use xlink:href="#7" y="10.855"></use><use xlink:href="#8" y="13.026"></use><use xlink:href="#9" y="15.197"></use><use xlink:href="#10" y="17.368"></use><text x="0" y="21.209000000000003" class="f">&gt;</text><text x="2.004" y="21.209000000000003" class="f">starw</text></svg><svg x="2320"><use xlink:href="#a"></use><use xlink:href="#b" x="7.996" y="19.514000000000003"></use><use xlink:href="#2" y="0"></use><use xlink:href="#3" y="2.171"></use><use xlink:href="#4" y="4.342"></use><use xlink:href="#5" y="6.513"></use><use xlink:href="#6" y="8.684"></use><use xlink:href="#7" y="10.855"></use><use xlink:href="#8" y="13.026"></use><use xlink:href="#9" y="15.197"></use><use xlink:href="#10" y="17.368"></use><text x="0" y="21.209000000000003" class="f">&gt;</text><text x="2.004" y="21.209000000000003" class="f">starwa</text></svg><svg x="2400"><use xlink:href="#a"></use><use xlink:href="#b" x="8.996" y="19.514000000000003"></use><use xlink:href="#2" y="0"></use><use xlink:href="#3" y="2.171"></use><use xlink:href="#4" y="4.342"></use><use xlink:href="#5" y="6.513"></use><use xlink:href="#6" y="8.684"></use><use xlink:href="#7" y="10.855"></use><use xlink:href="#8" y="13.026"></use><use xlink:href="#9" y="15.197"></use><use xlink:href="#10" y="17.368"></use><text x="0" y="21.209000000000003" class="f">&gt;</text><text x="2.004" y="21.209000000000003" class="f">starwar</text></svg><svg x="2480"><use xlink:href="#a"></use><use xlink:href="#b" x="9.996" y="19.514000000000003"></use><use xlink:href="#2" y="0"></use><use xlink:href="#3" y="2.171"></use><use xlink:href="#4" y="4.342"></use><use xlink:href="#5" y="6.513"></use><use xlink:href="#6" y="8.684"></use><use xlink:href="#7" y="10.855"></use><use xlink:href="#8" y="13.026"></use><use xlink:href="#9" y="15.197"></use><use xlink:href="#10" y="17.368"></use><use xlink:href="#11" y="19.539"></use></svg><svg x="2560"><use xlink:href="#a"></use><use xlink:href="#b" x="-0.0040000000000000036" y="21.685000000000002"></use><use xlink:href="#2" y="0"></use><use xlink:href="#3" y="2.171"></use><use xlink:href="#4" y="4.342"></use><use xlink:href="#5" y="6.513"></use><use xlink:href="#6" y="8.684"></use><use xlink:href="#7" y="10.855"></use><use xlink:href="#8" y="13.026"></use><use xlink:href="#9" y="15.197"></use><use xlink:href="#10" y="17.368"></use><use xlink:href="#11" y="19.539"></use></svg><svg x="2640"><use xlink:href="#a"></use><use xlink:href="#b" x="49.996" y="39.053000000000004"></use><use xlink:href="#2" y="0"></use><use xlink:href="#3" y="2.171"></use><use xlink:href="#4" y="4.342"></use><use xlink:href="#5" y="6.513"></use><use xlink:href="#6" y="8.684"></use><use xlink:href="#7" y="10.855"></use><use xlink:href="#8" y="13.026"></use><use xlink:href="#9" y="15.197"></use><use xlink:href="#10" y="17.368"></use><use xlink:href="#11" y="19.539"></use><use xlink:href="#12" y="21.71"></use><use xlink:href="#13" y="23.880999999999997"></use><use xlink:href="#14" y="26.052"></use><use xlink:href="#15" y="28.223000000000003"></use><use xlink:href="#16" y="30.394"></use><use xlink:href="#17" y="32.565"></use><use xlink:href="#18" y="34.736"></use><use xlink:href="#19" y="36.907000000000004"></use><text x="1.002" y="40.748000000000005" class="p">6</text><text x="3.006" y="40.748000000000005" class="f">Owen</text><text x="8.016" y="40.748000000000005" class="f">L…</text><text x="14.027999999999999" y="40.748000000000005" class="f">178</text><text x="20.04" y="40.748000000000005" class="f">120</text><text x="24.048" y="40.748000000000005" class="f">brown,</text><text x="31.061999999999998" y="40.748000000000005" class="f">grey</text><text x="36.071999999999996" y="40.748000000000005" class="f">light</text><text x="47.093999999999994" y="40.748000000000005" class="f">blu</text></svg><svg x="2720"><use xlink:href="#a"></use><use xlink:href="#b" x="-0.0040000000000000036" y="52.079"></use><use xlink:href="#3" y="0"></use><use xlink:href="#4" y="2.171"></use><use xlink:href="#5" y="4.342"></use><use xlink:href="#6" y="6.513"></use><use xlink:href="#7" y="8.684"></use><use xlink:href="#8" y="10.855"></use><use xlink:href="#9" y="13.026"></use><use xlink:href="#10" y="15.197"></use><use xlink:href="#11" y="17.368"></use><use xlink:href="#12" y="19.539"></use><use xlink:href="#13" y="21.71"></use><use xlink:href="#14" y="23.880999999999997"></use><use xlink:href="#15" y="26.052"></use><use xlink:href="#16" y="28.223000000000003"></use><use xlink:href="#17" y="30.394"></use><use xlink:href="#18" y="32.565"></use><use xlink:href="#19" y="34.736"></use><use xlink:href="#20" y="36.907000000000004"></use><use xlink:href="#21" y="39.078"></use><use xlink:href="#22" y="41.248999999999995"></use><use xlink:href="#23" y="43.42"></use><use xlink:href="#24" y="45.591"></use><use xlink:href="#25" y="47.76199999999999"></use><use xlink:href="#26" y="49.933"></use></svg><svg x="2800"><use xlink:href="#a"></use><use xlink:href="#b" x="1.996" y="52.079"></use><use xlink:href="#3" y="0"></use><use xlink:href="#4" y="2.171"></use><use xlink:href="#5" y="4.342"></use><use xlink:href="#6" y="6.513"></use><use xlink:href="#7" y="8.684"></use><use xlink:href="#8" y="10.855"></use><use xlink:href="#9" y="13.026"></use><use xlink:href="#10" y="15.197"></use><use xlink:href="#11" y="17.368"></use><use xlink:href="#12" y="19.539"></use><use xlink:href="#13" y="21.71"></use><use xlink:href="#14" y="23.880999999999997"></use><use xlink:href="#15" y="26.052"></use><use xlink:href="#16" y="28.223000000000003"></use><use xlink:href="#17" y="30.394"></use><use xlink:href="#18" y="32.565"></use><use xlink:href="#19" y="34.736"></use><use xlink:href="#20" y="36.907000000000004"></use><use xlink:href="#21" y="39.078"></use><use xlink:href="#22" y="41.248999999999995"></use><use xlink:href="#23" y="43.42"></use><use xlink:href="#24" y="45.591"></use><use xlink:href="#25" y="47.76199999999999"></use><use xlink:href="#26" y="49.933"></use><use xlink:href="#1" y="52.104"></use></svg><svg x="2880"><use xlink:href="#a"></use><use xlink:href="#b" x="1.996" y="52.079"></use><use xlink:href="#3" y="0"></use><use xlink:href="#4" y="2.171"></use><use xlink:href="#5" y="4.342"></use><use xlink:href="#6" y="6.513"></use><use xlink:href="#7" y="8.684"></use><use xlink:href="#8" y="10.855"></use><use xlink:href="#9" y="13.026"></use><use xlink:href="#10" y="15.197"></use><use xlink:href="#11" y="17.368"></use><use xlink:href="#12" y="19.539"></use><use xlink:href="#13" y="21.71"></use><use xlink:href="#14" y="23.880999999999997"></use><use xlink:href="#15" y="26.052"></use><use xlink:href="#16" y="28.223000000000003"></use><use xlink:href="#17" y="30.394"></use><use xlink:href="#18" y="32.565"></use><use xlink:href="#19" y="34.736"></use><use xlink:href="#20" y="36.907000000000004"></use><use xlink:href="#21" y="39.078"></use><use xlink:href="#22" y="41.248999999999995"></use><use xlink:href="#23" y="43.42"></use><use xlink:href="#24" y="45.591"></use><use xlink:href="#25" y="47.76199999999999"></use><use xlink:href="#26" y="49.933"></use><use xlink:href="#1" y="52.104"></use></svg></svg></g></g></svg></svg>