<svg xmlns="http://www.w3.org/2000/svg" xmlns:xlink="http://www.w3.org/1999/xlink" width="840" height="385.65"><rect width="840" height="385.65" rx="5" ry="5" class="a"></rect><svg y="0%" x="0%"><circle cx="20" cy="20" r="6" class="b"></circle><circle cx="40" cy="20" r="6" class="c"></circle><circle cx="60" cy="20" r="6" class="d"></circle></svg><svg height="325.65" viewBox="0 0 80 32.565" width="800" x="15" xmlns="http://www.w3.org/2000/svg" xmlns:xlink="http://www.w3.org/1999/xlink" y="50"><style>.a{fill:rgb(40,45,53)}.b{fill:#ff5f58}.c{fill:#ffbd2e}.d{fill:#18c132}.e{font-family:'Fira Code',Monaco,Consolas,Menlo,'Bitstream Vera Sans Mono','Powerline Symbols',monospace}.f{fill:rgb(185,192,203);white-space:pre}.g{fill:transparent}.h{fill:rgb(111,118,131)}.i{fill:rgb(111,119,131);white-space:pre}.j{fill:rgb(219,171,121);white-space:pre}.k{fill:rgb(113,190,242);white-space:pre}.l{fill:rgb(168,204,140);white-space:pre}</style><g font-family="&#x27;Fira Code&#x27;,Monaco,Consolas,Menlo,&#x27;Bitstream Vera Sans Mono&#x27;,&#x27;Powerline Symbols&#x27;,monospace" font-size="1.67" class="e"><defs><symbol id="1"><text x="0" y="1.67" class="f">+</text><text x="2.004" y="1.67" class="f">)</text></symbol><symbol id="2"><text x="0" y="1.67" class="f">&gt;</text></symbol><symbol id="a"><rect height="16" width="80" x="0" y="0" class="g"></rect></symbol><symbol id="b"><rect height="2.171" width="1.1022" class="h"></rect></symbol></defs><rect height="32.565" width="80" class="a"></rect><svg x="0" y="0" width="80"><svg x="0"><use xlink:href="#a"></use><use xlink:href="#b" x="1.996" y="28.198000000000004"></use><text x="0" y="1.67" class="f">&gt;</text><text x="2.004" y="1.67" class="f">old_data</text><text x="11.021999999999998" y="1.67" class="f">&lt;-</text><text x="14.027999999999999" y="1.67" class="f">tibble::tibble(</text><text x="0" y="3.8409999999999997" class="f">+</text><text x="4.008" y="3.8409999999999997" class="f">x</text><text x="6.012" y="3.8409999999999997" class="f">=</text><text x="8.016" y="3.8409999999999997" class="f">1:4,</text><text x="13.026" y="3.8409999999999997" class="f">y</text><text x="15.029999999999998" y="3.8409999999999997" class="f">=</text><text x="17.034" y="3.8409999999999997" class="f">5:8</text><use xlink:href="#1" y="4.342"></use><text x="0" y="8.183" class="f">&gt;</text><text x="2.004" y="8.183" class="f">new_data</text><text x="11.021999999999998" y="8.183" class="f">&lt;-</text><text x="14.027999999999999" y="8.183" class="f">tibble::tibble(</text><text x="0" y="10.354" class="f">+</text><text x="4.008" y="10.354" class="f">x</text><text x="6.012" y="10.354" class="f">=</text><text x="8.016" y="10.354" class="f">c(1L,</text><text x="14.027999999999999" y="10.354" class="f">2L,</text><text x="18.035999999999998" y="10.354" class="f">4L,</text><text x="22.043999999999997" y="10.354" class="f">5L),</text><text x="27.054" y="10.354" class="f">y</text><text x="29.058" y="10.354" class="f">=</text><text x="31.061999999999998" y="10.354" class="f">c(5:7L,</text><text x="39.077999999999996" y="10.354" class="f">9L)</text><use xlink:href="#1" y="10.855"></use><use xlink:href="#2" y="13.026"></use><text x="0" y="16.866999999999997" class="f">&gt;</text><text x="2.004" y="16.866999999999997" class="f">waldo::compare(old_data,</text><text x="27.054" y="16.866999999999997" class="f">new_data)</text><text x="0" y="19.037999999999997" class="f">`old$x`:</text><text x="9.017999999999999" y="19.037999999999997" class="i">1</text><text x="11.021999999999998" y="19.037999999999997" class="i">2</text><text x="13.026" y="19.037999999999997" class="j">3</text><text x="15.029999999999998" y="19.037999999999997" class="i">4</text><text x="0" y="21.209000000000003" class="f">`new$x`:</text><text x="9.017999999999999" y="21.209000000000003" class="i">1</text><text x="11.021999999999998" y="21.209000000000003" class="i">2</text><text x="15.029999999999998" y="21.209000000000003" class="i">4</text><text x="17.034" y="21.209000000000003" class="k">5</text><text x="0" y="25.550999999999995" class="f">`old$y`:</text><text x="9.017999999999999" y="25.550999999999995" class="i">5</text><text x="11.021999999999998" y="25.550999999999995" class="i">6</text><text x="13.026" y="25.550999999999995" class="i">7</text><text x="15.029999999999998" y="25.550999999999995" class="l">8</text><text x="0" y="27.722" class="f">`new$y`:</text><text x="9.017999999999999" y="27.722" class="i">5</text><text x="11.021999999999998" y="27.722" class="i">6</text><text x="13.026" y="27.722" class="i">7</text><text x="15.029999999999998" y="27.722" class="l">9</text><use xlink:href="#2" y="28.223000000000003"></use></svg></svg></g></svg></svg>